<svg width="47" height="47" viewBox="0 0 47 47" fill="none" xmlns="http://www.w3.org/2000/svg">
<path d="M44.9586 12.9699H44.1402C43.8842 12.2817 43.5845 11.6146 43.2415 10.9742L43.8711 10.3445C44.6682 9.54748 44.6682 8.25527 43.8711 7.45821L39.5414 3.12843C38.7443 2.33137 37.4521 2.33137 36.655 3.12843L35.843 3.94042C35.2571 3.66395 34.6515 3.42287 34.0297 3.21699V2.04099C34.0297 0.91373 33.1159 0 31.9887 0H25.8654C24.7382 0 23.8244 0.91373 23.8244 2.04099V3.21699C23.2027 3.42296 22.597 3.66404 22.011 3.94042L21.199 3.12843C20.402 2.33137 19.1098 2.33137 18.3127 3.12843L13.9829 7.45821C13.1859 8.25527 13.1859 9.54758 13.9829 10.3445L14.6125 10.9742C14.2695 11.6146 13.9698 12.2817 13.7138 12.9699H12.8955C11.7683 12.9699 10.8545 13.8836 10.8545 15.0109V21.1341C10.8545 22.2613 11.7682 23.1751 12.8955 23.1751H13.3476C13.5859 23.9917 13.8857 24.7822 14.2434 25.5401L13.983 25.8004C13.186 26.5975 13.186 27.8897 13.983 28.6868L18.3128 33.0166C19.1099 33.8136 20.4021 33.8136 21.1991 33.0166L21.2771 32.9387C22.0873 33.3727 22.9394 33.7384 23.8246 34.0315V34.104C23.8246 35.2312 24.7383 36.145 25.8656 36.145H31.9889C33.116 36.145 34.0299 35.2313 34.0299 34.104V34.0315C34.9149 33.7383 35.767 33.3726 36.5773 32.9387L36.6553 33.0166C37.4524 33.8136 38.7446 33.8136 39.5416 33.0166L43.8714 28.6868C44.6685 27.8897 44.6685 26.5975 43.8714 25.8004L43.6111 25.5401C43.9686 24.7822 44.2685 23.9917 44.5068 23.1751H44.959C46.0861 23.1751 46.9999 22.2614 46.9999 21.1341V15.0109C46.9996 13.8837 46.0858 12.9699 44.9586 12.9699ZM28.9271 25.1483C25.3236 25.1483 22.4031 22.2277 22.4031 18.6242C22.4031 15.0207 25.3236 12.1002 28.9271 12.1002C32.5306 12.1002 35.4511 15.0208 35.4511 18.6242C35.4511 22.2276 32.5305 25.1483 28.9271 25.1483Z" fill="url(#paint0_linear)"/>
<path d="M28.9275 30.5035C35.4886 30.5035 40.8062 25.1859 40.8062 18.6249C40.8062 12.0638 35.4886 6.74609 28.9275 6.74609C22.3664 6.74609 17.0488 12.0637 17.0488 18.6248C17.0488 25.1858 22.3663 30.5035 28.9275 30.5035ZM28.9275 12.1008C32.531 12.1008 35.4515 15.0214 35.4515 18.6249C35.4515 22.2284 32.531 25.1489 28.9275 25.1489C25.324 25.1489 22.4035 22.2283 22.4035 18.6249C22.4035 15.0215 25.324 12.1008 28.9275 12.1008Z" fill="url(#paint1_linear)"/>
<path d="M25.8656 36.145H31.9888C32.3323 36.145 32.6556 36.0598 32.9396 35.91L20.4698 23.5324C19.901 22.9637 19.0712 22.9637 18.5025 23.5324L18.2407 23.7942L16.2812 21.8406C16.0187 21.4587 15.5791 21.3923 15.0806 21.3923C15.0806 21.3923 10.867 21.3679 10.8789 21.4458C11.029 22.4249 11.8745 23.175 12.8957 23.175H13.3478C13.5861 23.9917 13.8859 24.7821 14.2436 25.54L13.9832 25.8003C13.1862 26.5974 13.1862 27.8896 13.9832 28.6867L18.313 33.0164C19.1101 33.8135 20.4023 33.8135 21.1993 33.0164L21.2773 32.9386C22.0875 33.3725 22.9396 33.7383 23.8248 34.0314V34.1039C23.8247 35.2312 24.7384 36.145 25.8656 36.145Z" fill="url(#paint2_linear)"/>
<path d="M24.3354 30.462H23.7514C23.5688 29.9709 23.3549 29.4949 23.1101 29.0379L23.5594 28.5887C24.1282 28.02 24.1282 27.0978 23.5594 26.5291L20.4698 23.4394C19.9011 22.8706 18.9789 22.8706 18.4102 23.4394L17.8308 24.0188C17.4127 23.8216 16.9804 23.6495 16.5368 23.5026V22.6634C16.5368 21.859 15.8848 21.207 15.0805 21.207H10.7111C9.9068 21.207 9.2548 21.859 9.2548 22.6634V23.5026C8.81116 23.6494 8.37894 23.8215 7.96083 24.0188L7.38144 23.4394C6.81265 22.8706 5.89063 22.8706 5.32184 23.4394L2.23221 26.5291C1.66342 27.0978 1.66342 28.02 2.23221 28.5887L2.68147 29.0379C2.4367 29.495 2.2229 29.9709 2.04016 30.462H1.45616C0.652006 30.462 0 31.114 0 31.9184V36.2877C0 37.092 0.652006 37.744 1.45635 37.744H1.77889C1.94892 38.3267 2.16291 38.8908 2.41809 39.4316L2.2323 39.6174C1.66351 40.1861 1.66351 41.1082 2.2323 41.677L5.32193 44.7666C5.89072 45.3354 6.81275 45.3354 7.38154 44.7666L7.43711 44.711C8.01529 45.0207 8.62325 45.2817 9.25489 45.4909V45.5427C9.25489 46.347 9.90689 46.999 10.7112 46.999H15.0805C15.8849 46.999 16.5369 46.347 16.5369 45.5427V45.4909C17.1684 45.2817 17.7765 45.0207 18.3547 44.711L18.4102 44.7666C18.979 45.3354 19.9011 45.3354 20.4698 44.7666L23.5595 41.677C24.1283 41.1082 24.1283 40.1862 23.5595 39.6174L23.3737 39.4316C23.6289 38.8907 23.8428 38.3267 24.0129 37.744H24.3355C25.1399 37.744 25.7919 37.092 25.7919 36.2877V31.9184C25.7918 31.114 25.1398 30.462 24.3354 30.462ZM12.8959 39.152C10.3246 39.152 8.24062 37.068 8.24062 34.4967C8.24062 31.9254 10.3246 29.8414 12.8959 29.8414C15.4671 29.8414 17.5512 31.9255 17.5512 34.4967C17.5512 37.068 15.4671 39.152 12.8959 39.152Z" fill="url(#paint3_linear)"/>
<path d="M18.8899 28.5024C15.5794 25.1919 10.2132 25.1919 6.90279 28.5024C3.59235 31.813 3.59225 37.1791 6.90279 40.4896C10.2133 43.8 15.5795 43.8001 18.8899 40.4896C22.2004 37.179 22.2005 31.813 18.8899 28.5024ZM9.60453 37.7878C7.78638 35.9697 7.78638 33.0224 9.60453 31.2043C11.4227 29.3861 14.3699 29.3861 16.1882 31.2043C18.0063 33.0224 18.0063 35.9697 16.1882 37.7878C14.3699 39.6061 11.4228 39.6061 9.60453 37.7878Z" fill="url(#paint4_linear)"/>
<defs>
<linearGradient id="paint0_linear" x1="15.9254" y1="5.0709" x2="43.7259" y2="32.8714" gradientUnits="userSpaceOnUse">
<stop stop-color="#B5DBFF"/>
<stop offset="1" stop-color="#48B2E3"/>
</linearGradient>
<linearGradient id="paint1_linear" x1="37.4734" y1="27.1708" x2="19.2001" y2="8.89748" gradientUnits="userSpaceOnUse">
<stop stop-color="#B5DBFF"/>
<stop offset="1" stop-color="#48B2E3"/>
</linearGradient>
<linearGradient id="paint2_linear" x1="35.3009" y1="44.1379" x2="3.66982" y2="12.5068" gradientUnits="userSpaceOnUse">
<stop stop-color="#07485E" stop-opacity="0"/>
<stop offset="0.3332" stop-color="#063F52" stop-opacity="0.333"/>
<stop offset="0.9358" stop-color="#032632" stop-opacity="0.936"/>
<stop offset="1" stop-color="#03232E"/>
</linearGradient>
<linearGradient id="paint3_linear" x1="3.61842" y1="24.8255" x2="23.4559" y2="44.663" gradientUnits="userSpaceOnUse">
<stop stop-color="#76E2F8"/>
<stop offset="1" stop-color="#48B2E3"/>
</linearGradient>
<linearGradient id="paint4_linear" x1="12.8964" y1="43.126" x2="12.8964" y2="24.6887" gradientUnits="userSpaceOnUse">
<stop stop-color="#76E2F8"/>
<stop offset="1" stop-color="#48B2E3"/>
</linearGradient>
</defs>
</svg>
