<svg width="45" height="53" viewBox="0 0 45 53" fill="none" xmlns="http://www.w3.org/2000/svg">
<path d="M32.6988 43.3571L40.335 39.7504C42.019 38.9001 44.0731 39.5235 45.0007 41.1654L29.4792 51.2058C27.3979 52.1662 25.0625 52.4305 22.8194 51.9596L12.1144 48.955C11.1294 48.6788 10.0752 48.794 9.17305 49.2771L6.93457 50.475L7.23584 39.5566L7.32507 39.5587C10.5239 37.2858 14.7251 36.9918 18.2094 38.7973L18.8502 39.1292C19.8522 39.648 20.9582 39.934 22.0864 39.9645L28.3795 40.1383C30.3541 40.1923 32.0827 41.4802 32.6988 43.3571Z" fill="#F7CAA5"/>
<path d="M34.7935 24.2026C34.7935 30.6916 29.533 35.9521 23.044 35.9521C16.555 35.9521 11.2949 30.6916 11.2949 24.2026C11.2949 17.7136 16.555 12.4531 23.044 12.4531C29.533 12.4531 34.7935 17.7136 34.7935 24.2026Z" fill="#FEDB41"/>
<path d="M23.0442 23.2653C21.9535 23.2653 21.0688 22.381 21.0688 21.2898C21.0688 20.1991 21.9535 19.3144 23.0442 19.3144C24.1354 19.3144 25.0197 20.1991 25.0197 21.2898C25.0197 21.7704 25.4094 22.1601 25.8899 22.1601C26.3705 22.1601 26.7602 21.7704 26.7602 21.2898C26.7581 19.5319 25.5262 18.0154 23.8057 17.6529V16.8605C23.8057 16.3799 23.416 15.9902 22.9355 15.9902C22.4549 15.9902 22.0652 16.3799 22.0652 16.8605V17.7061C20.2699 18.196 19.1137 19.9394 19.3615 21.784C19.6088 23.629 21.1831 25.0062 23.0442 25.0058C24.1269 24.9973 25.015 25.862 25.035 26.9443C25.055 28.027 24.1992 28.9235 23.1169 28.9546C23.0192 28.9333 22.9189 28.9295 22.8203 28.9435C21.8209 28.8343 21.065 27.9879 21.0688 26.9825C21.0688 26.5019 20.6791 26.1123 20.1985 26.1123C19.718 26.1123 19.3283 26.5019 19.3283 26.9825C19.3228 28.6597 20.4459 30.1307 22.0652 30.5676V31.437C22.0652 31.9175 22.4549 32.3072 22.9355 32.3072C23.416 32.3072 23.8057 31.9175 23.8057 31.437V30.6194C25.6694 30.2293 26.9365 28.4931 26.7406 26.5992C26.5443 24.7054 24.9487 23.2657 23.0442 23.2653Z" fill="#00ACEA"/>
<path d="M32.929 45.8163H32.9052L22.5613 45.5312C22.0807 45.518 21.7021 45.1177 21.7153 44.6376C21.7285 44.157 22.1287 43.7784 22.6089 43.7916L31.9835 44.0499C31.9546 43.908 31.9172 43.7682 31.8717 43.6305C31.3686 42.1033 29.9626 41.0551 28.3551 41.0092L22.0616 40.835C20.803 40.7993 19.5682 40.4801 18.4493 39.9023L17.809 39.5708C14.6157 37.9064 10.7587 38.1762 7.82845 40.269C7.43667 40.5473 6.8932 40.4551 6.61488 40.0633C6.33655 39.6715 6.42876 39.128 6.82054 38.8497C10.2815 36.3784 14.8375 36.0597 18.6091 38.0254L19.2499 38.3568C20.1354 38.8145 21.1128 39.0664 22.1092 39.0953L28.4027 39.2691C29.8746 39.3086 31.2705 39.9316 32.2826 41.0011C33.2948 42.0702 33.8404 43.4984 33.7988 44.9699C33.786 45.4415 33.4002 45.8167 32.9285 45.8163H32.929Z" fill="#EDB288"/>
<path d="M23.045 10.0077C22.5645 10.0077 22.1748 9.61808 22.1748 9.1375V0.870238C22.1748 0.389652 22.5645 0 23.045 0C23.5256 0 23.9153 0.389652 23.9153 0.870238V9.1375C23.9153 9.61808 23.5256 10.0077 23.045 10.0077Z" fill="#00ACEA"/>
<path d="M29.5714 10.0081C29.0908 10.0081 28.7012 9.61846 28.7012 9.13787V5.2218C28.7012 4.74121 29.0908 4.35156 29.5714 4.35156C30.052 4.35156 30.4416 4.74121 30.4416 5.2218V9.13787C30.4416 9.61846 30.052 10.0081 29.5714 10.0081Z" fill="#00ACEA"/>
<path d="M16.5177 10.0081C16.0371 10.0081 15.6475 9.61846 15.6475 9.13787V5.2218C15.6475 4.74121 16.0371 4.35156 16.5177 4.35156C16.9983 4.35156 17.3879 4.74121 17.3879 5.2218V9.13787C17.3879 9.61846 16.9983 10.0081 16.5177 10.0081Z" fill="#00ACEA"/>
<path d="M6.93386 50.4746L6.89987 51.7035L0 51.5144L0.416847 36.3711L7.31756 36.5606L7.23513 39.5563L6.93386 50.4746Z" fill="#00EFD1"/>
</svg>
